<svg width="160" height="34" viewBox="0 0 160 34" fill="none" xmlns="http://www.w3.org/2000/svg">
<path d="M100.996 16.6676C99.2467 16.6676 98.3118 15.0599 98.3118 12.7793C98.3118 10.4984 99.1715 8.75221 100.921 8.75221C102.701 8.75221 103.896 10.4984 103.896 12.7793C103.896 15.0243 102.748 16.6676 100.996 16.6676ZM103.846 0.549351V7.92302C103.48 7.34708 102.378 5.76948 100.134 5.76948C96.7979 5.76948 94.8721 8.7143 94.8721 12.7793C94.8721 16.7657 96.9253 19.625 100.209 19.625C102.486 19.625 103.493 18.1787 103.871 17.5477V19.2704H107.209V0.549351H103.846Z" fill="white"/>
<path d="M89.9585 6.26776V13.8081C89.9585 15.4065 89.1133 16.4793 87.5909 16.4793C86.0611 16.4793 85.2492 15.4307 85.2492 13.8081V6.26776H81.8604V13.986C81.8604 17.42 84.0106 19.6396 87.6162 19.6396C91.0651 19.6396 93.2963 17.3173 93.2963 13.986V6.26776H89.9585Z" fill="white"/>
<path d="M117.605 11.0036C117.427 9.99043 116.809 8.60406 115.057 8.60406C113.543 8.60406 112.725 9.57172 112.458 11.0036H117.605ZM115.305 19.625C111.477 19.625 108.904 16.7999 108.904 12.6616C108.904 8.52328 111.377 5.76928 115.057 5.76928C118.765 5.76928 121.161 8.44869 121.161 12.6362V13.3439H112.416C112.573 15.3068 113.499 16.7344 115.305 16.7344C117.117 16.7344 117.672 15.32 117.672 15.32H121.041C120.846 16.9547 119.388 19.625 115.305 19.625Z" fill="white"/>
<path d="M129.582 5.7706C127.74 5.7706 126.596 6.70612 126.009 7.64678V6.28905H122.646V19.2715H126.009V11.7185C126.009 9.82752 126.806 8.80402 128.487 8.80402C130.12 8.80402 130.966 9.82752 130.966 11.7185V19.2715H134.355V11.1348C134.355 7.83904 132.569 5.7706 129.582 5.7706Z" fill="white"/>
<path d="M152.519 11.2092L150.965 11.0427C149.772 10.904 149.217 10.4876 149.217 9.65507C149.217 8.96127 150.049 8.35091 151.271 8.35091C153.13 8.35091 153.629 9.40533 153.657 9.48857H156.987C156.932 8.98908 156.21 5.77 151.243 5.77C148.135 5.77 146.081 7.51822 146.081 9.90482C146.081 12.1527 147.552 13.6512 150.66 14.012L152.325 14.2063C153.574 14.345 153.879 14.8169 153.879 15.5939C153.879 16.454 153.185 16.9813 151.881 16.9813C149.636 16.9813 149.329 15.9828 149.063 15.3471H145.714C145.796 17.045 147.524 19.6455 151.881 19.6455C155.211 19.6455 157.237 18.036 157.237 15.3996C157.237 13.0963 155.96 11.5976 152.519 11.2092Z" fill="white"/>
<path d="M79.7951 9.17472V6.26823H76.0852V1.11136H72.6965V6.26823H70.2734V9.17472H72.6965V15.1919C72.6965 17.9667 74.0421 19.2715 76.9517 19.2715H79.7951V16.2381H78.0683C76.5086 16.2381 76.0852 15.7874 76.0852 14.2275V9.17472H79.7951Z" fill="white"/>
<path d="M144.801 9.17472V6.26823H141.091V1.11136H137.702V6.26823H135.279V9.17472H137.702V15.1919C137.702 17.9667 139.048 19.2715 141.958 19.2715H144.801V16.2381H143.074C141.514 16.2381 141.091 15.7874 141.091 14.2275V9.17472H144.801Z" fill="white"/>
<path d="M31.8186 5.23889C31.8186 3.96852 32.3498 3.39094 33.574 3.39094H37.3161V0.549774H32.6269C29.9245 0.549774 28.4923 1.95882 28.4923 4.61514V7.133H25.5127V10.1359H28.4923V19.3291H31.8186V10.1359H35.0756V7.133H31.8186V5.23889Z" fill="white"/>
<path d="M20.4541 19.3291H23.7803V0.549768H20.4541V19.3291Z" fill="white"/>
<path d="M8.04984 12.4704L10.5436 5.05843H10.6359L12.9912 12.4704H8.04984ZM13.8214 3.69019C13.3147 2.17833 12.7303 0.984204 10.7282 0.984204C8.72633 0.984204 8.10444 2.17359 7.57095 3.69019L2.06934 19.3281H5.71764L6.98759 15.6106H14.007L15.1847 19.3281H19.064L13.8214 3.69019Z" fill="white"/>
<path d="M43.8523 14.4782C43.8523 15.9795 42.7898 16.8343 41.4038 16.8343C40.2027 16.8343 39.2557 16.3953 39.2557 15.1019C39.2557 13.8313 40.295 13.6234 41.1959 13.6234H43.8523V14.4782ZM47.1785 15.3329V10.9671C47.1785 7.77954 45.1459 5.76983 41.7272 5.76983C38.193 5.76983 36.322 7.89494 36.1604 10.1126H39.5328C39.6482 9.6275 40.1566 8.79583 41.7272 8.79583C43.0208 8.79583 43.8523 9.3965 43.8523 10.9671H40.5491C37.5925 10.9671 35.8369 12.5148 35.8369 15.1019C35.8369 17.8044 37.7572 19.6523 40.526 19.6523C42.5561 19.6523 43.6833 18.6929 44.1756 17.9661C44.6145 18.8438 45.5846 19.3288 46.8552 19.3288H48.0099V16.3261C47.4095 16.3261 47.1785 16.049 47.1785 15.3329Z" fill="white"/>
<path d="M19.4799 28.0469H1.7002V24.3524H19.4799V28.0469Z" fill="white"/>
<path d="M63.4595 8.4851L61.8097 8.25657C59.9061 8.00291 59.0941 7.24152 59.0941 6.07398C59.0941 4.77951 60.2869 4.01811 62.2666 4.01811C64.8807 4.01811 65.6421 5.49021 65.7943 5.84546H69.373C69.297 5.18565 67.9518 0.972538 62.2666 0.972538C58.155 0.972538 55.5408 3.0284 55.5408 6.17557C55.5408 9.01817 57.2921 10.8709 61.4545 11.5053L63.3072 11.7845C65.4391 12.1144 66.2005 12.8251 66.2005 14.1957C66.2005 15.6931 64.8807 16.6068 62.7488 16.6068C60.4899 16.6068 58.9671 15.82 58.5103 14.1703H54.9316C55.6677 17.5711 58.8402 19.6523 62.7488 19.6523C67.0128 19.6523 69.7538 17.4189 69.7538 13.9671C69.7538 9.8556 66.429 8.89124 63.4595 8.4851Z" fill="white"/>
</svg>
